<svg width="250" height="250" viewBox="0 0 250 250" fill="none" xmlns="http://www.w3.org/2000/svg">
<path d="M47.84 95.8H54.88V104.12H65.568C65.824 101.176 65.696 98.232 65.696 95.8H72.736C72.736 104.184 74.272 122.552 54.88 126.072H54.816C52.768 126.456 50.4 126.648 47.84 126.648V95.8ZM54.88 119.096C60.192 117.56 62.88 114.36 64.288 110.52H54.88V119.096ZM83.04 95.16H90.08V126.648H83.04V95.16ZM82.4 142.008V138.04H49.824V131.64H89.44V147.96H57.824C63.904 154.04 82.336 153.016 89.44 152.888V159.288C80.16 159.48 47.264 162.104 49.824 142.008H82.4ZM97.361 95.8H120.977L120.913 112.76H104.145C101.201 135.16 106.257 153.912 122.385 152.888V159.288C98.321 160.632 94.225 136.696 97.361 107H113.873L113.937 102.2H97.361V95.8ZM131.665 95.16H138.705V159.224H131.665V95.16Z" fill="#111827"/>
<path d="M152.13 95.8C172.226 95.8 171.202 117.56 171.202 126.84H164.802C164.802 117.944 165.25 102.2 152.13 102.2V126.84H145.09V95.8H152.13ZM177.73 95.16H184.77V104.184H191.17V110.584H184.77V126.712H177.73V95.16ZM147.01 131.64H154.05V152.504C172.482 151.032 177.666 139.576 179.65 131.64H186.69C184.962 140.92 178.626 160.568 147.01 159.288V131.64Z" fill="#FFD700"/>
<path d="M219.029 52.7573C219.558 52.8826 220.021 53.1433 220.416 53.5396C220.811 53.9359 221.046 54.4689 221.12 55.1386L224.935 98.6592L216.205 94.218L211.515 96.3221L210.028 102.607C209.611 104.372 208.616 105.72 207.045 106.652C205.473 107.585 203.762 107.832 201.909 107.393C200.057 106.955 198.637 105.967 197.65 104.429C196.663 102.892 196.378 101.241 196.796 99.4763L197.172 97.8885L202.464 99.1409L202.089 100.729C202.005 101.082 202.067 101.411 202.274 101.716C202.482 102.021 202.762 102.215 203.114 102.299C203.467 102.382 203.805 102.334 204.127 102.154C204.449 101.974 204.652 101.708 204.735 101.355L206.222 95.0697L202.973 91.0869L193.178 91.1447L216.076 54.015C216.443 53.4496 216.895 53.0674 217.431 52.8682C217.967 52.6691 218.5 52.6321 219.029 52.7573ZM211.874 71.1855L202.987 85.7108L205.51 85.6789L207.804 88.3874L211.874 71.1855ZM217.167 72.4379L213.096 89.6398L216.376 88.1802L218.668 89.421L217.167 72.4379Z" fill="#FFD700"/>
</svg>
