<svg width="140" height="180" viewBox="0 0 140 180" fill="none" xmlns="http://www.w3.org/2000/svg">
<g clip-path="url(#clip0_279_52)">
<path d="M116 2H24C11.8497 2 2 11.8497 2 24V156C2 168.15 11.8497 178 24 178H116C128.15 178 138 168.15 138 156V24C138 11.8497 128.15 2 116 2Z" fill="white" stroke="#DCDCDC" stroke-width="4"/>
<path d="M46 38V90" stroke="#4A4A4A" stroke-width="4" stroke-linecap="round"/>
<path d="M46 38C46 36.4087 46.6321 34.8826 47.7574 33.7574C48.8826 32.6321 50.4087 32 52 32C53.5913 32 55.1174 32.6321 56.2426 33.7574C57.3679 34.8826 58 36.4087 58 38" stroke="#4A4A4A" stroke-width="4" stroke-linecap="round"/>
<path d="M40 60C44 54.6667 48 54.6667 52 60L46 92L40 60Z" fill="#4A4A4A"/>
<path d="M94 30V90" stroke="#4A4A4A" stroke-width="4" stroke-linecap="round"/>
<path d="M94 30C94 28.4087 94.6321 26.8826 95.7574 25.7574C96.8826 24.6321 98.4087 24 100 24C101.591 24 103.117 24.6321 104.243 25.7574C105.368 26.8826 106 28.4087 106 30" stroke="#4A4A4A" stroke-width="4" stroke-linecap="round"/>
<path d="M87 54C91.6667 48 96.3333 48 101 54L94 92L87 54Z" fill="#4A4A4A"/>
<path d="M112 86H28C21.3726 86 16 91.3726 16 98V152C16 158.627 21.3726 164 28 164H112C118.627 164 124 158.627 124 152V98C124 91.3726 118.627 86 112 86Z" fill="#FFD700"/>
<path d="M119 86H21C18.2386 86 16 88.2386 16 91C16 93.7614 18.2386 96 21 96H119C121.761 96 124 93.7614 124 91C124 88.2386 121.761 86 119 86Z" fill="#E8C922"/>
</g>
<defs>
<clipPath id="clip0_279_52">
<rect width="140" height="180" fill="white"/>
</clipPath>
</defs>
</svg>
